<?xml version="1.0" standalone="no"?>
<!DOCTYPE svg PUBLIC "-//W3C//DTD SVG 20010904//EN"
 "http://www.w3.org/TR/2001/REC-SVG-20010904/DTD/svg10.dtd">
<svg version="1.0" xmlns="http://www.w3.org/2000/svg"
 width="512.000000pt" height="512.000000pt" viewBox="0 0 512.000000 512.000000"
 preserveAspectRatio="xMidYMid meet">
<metadata>
Created by potrace 1.14, written by Peter Selinger 2001-2017
</metadata>
<g transform="translate(0.000000,512.000000) scale(0.100000,-0.100000)"
fill="#000000" stroke="none">
<path d="M1517 4734 c7 -19 22 -34 36 -34 11 0 9 38 -3 45 -5 3 -10 1 -10 -6
0 -8 -4 -8 -15 1 -13 11 -14 10 -8 -6z"/>
<path d="M1647 4687 c-34 -22 -84 -72 -97 -96 -8 -15 -8 -21 -1 -17 6 4 11 2
11 -5 0 -7 11 -10 30 -7 17 3 30 1 30 -4 0 -4 5 -8 11 -8 6 0 9 9 6 20 -3 12
1 21 12 24 30 10 55 -1 61 -25 3 -13 9 -19 12 -13 4 5 3 16 -3 24 -5 8 -9 22
-9 30 0 12 2 13 9 1 7 -11 10 -10 15 6 9 28 -3 59 -16 41 -7 -9 -8 -5 -5 15 4
24 1 27 -22 26 -14 0 -34 -6 -44 -12z"/>
<path d="M1395 4649 c-11 -16 -1 -19 13 -3 7 8 8 14 3 14 -5 0 -13 -5 -16 -11z"/>
<path d="M1418 4598 c-24 -24 -23 -55 2 -63 11 -4 18 -10 15 -15 -6 -10 12
-97 25 -122 6 -11 6 -19 0 -23 -6 -3 -10 -12 -10 -18 0 -9 3 -8 8 1 6 8 12 1
20 -23 13 -44 -3 -69 -55 -86 -21 -7 -33 -17 -33 -29 0 -16 4 -17 42 -7 31 8
43 7 46 -1 2 -7 7 -10 10 -8 9 6 7 -79 -3 -93 -3 -6 -3 -26 1 -43 l6 -32 18
22 c10 11 20 18 24 15 3 -4 6 2 7 13 0 10 2 36 4 56 3 23 -1 43 -10 51 -10 11
-11 17 -2 26 9 9 8 17 -2 33 -9 15 -10 23 -1 28 7 4 9 17 4 35 -5 18 -3 26 3
22 6 -4 14 0 17 9 3 8 2 12 -4 9 -5 -3 -13 12 -16 35 -4 22 -10 40 -15 40 -5
0 -9 7 -9 15 0 8 -5 15 -10 15 -7 0 -7 7 0 20 6 11 8 25 5 31 -4 5 -1 16 5 24
6 8 9 19 5 25 -3 5 -1 10 6 10 10 0 10 3 0 13 -10 10 -16 8 -29 -9 l-17 -21
-20 32 c-19 30 -21 31 -37 13z m99 -370 c-3 -8 -6 -5 -6 6 -1 11 2 17 5 13 3
-3 4 -12 1 -19z m18 -68 c0 -7 -7 -15 -15 -17 -13 -4 -13 -3 0 6 13 10 13 12
0 22 -13 9 -13 10 0 6 8 -2 15 -10 15 -17z"/>
<path d="M1856 4601 c-4 -7 -5 -15 -2 -18 9 -9 19 4 14 18 -4 11 -6 11 -12 0z"/>
<path d="M1867 4556 c-9 -24 -9 -25 10 -22 9 2 19 9 21 16 3 7 0 10 -6 6 -6
-3 -12 -1 -14 6 -3 7 -7 5 -11 -6z"/>
<path d="M1709 4531 c-5 -15 11 -61 22 -61 3 0 5 17 6 38 0 27 -1 31 -7 17
l-7 -20 -5 20 c-3 15 -5 16 -9 6z"/>
<path d="M1828 4485 c4 -32 19 -42 34 -21 6 9 -21 55 -32 56 -4 0 -4 -16 -2
-35z"/>
<path d="M1870 4500 c6 -11 15 -18 19 -15 16 9 20 -59 5 -76 -16 -18 -19 -53
-4 -44 6 3 10 -1 10 -9 0 -9 7 -16 15 -16 8 0 18 0 22 -1 4 0 9 5 12 12 2 7
-1 9 -9 4 -9 -5 -11 -4 -6 4 4 6 3 17 -2 24 -8 10 -18 70 -22 130 0 4 -11 7
-25 7 -23 0 -24 -2 -15 -20z"/>
<path d="M1931 4491 c-15 -27 -5 -47 15 -30 11 9 14 7 15 -12 1 -20 2 -19 8 6
4 18 2 32 -4 34 -5 2 -13 8 -16 14 -4 5 -12 0 -18 -12z"/>
<path d="M1366 4463 c9 -37 22 -51 30 -30 9 25 0 51 -19 55 -15 3 -17 -1 -11
-25z"/>
<path d="M1990 4390 c0 -13 5 -20 13 -17 6 2 12 10 12 17 0 7 -6 15 -12 18 -8
2 -13 -5 -13 -18z"/>
<path d="M1880 4331 c0 -12 5 -21 10 -21 6 0 10 6 10 14 0 8 -4 18 -10 21 -5
3 -10 -3 -10 -14z"/>
<path d="M1943 4254 c-6 -17 13 -42 24 -30 4 4 1 11 -6 15 -7 5 -10 14 -7 20
4 6 5 11 1 11 -3 0 -8 -7 -12 -16z"/>
<path d="M1361 4231 c-7 -4 -23 -7 -37 -5 -15 1 -24 -3 -24 -12 0 -17 -5 -17
-30 -4 -15 8 -18 7 -14 -3 7 -19 -22 -48 -41 -41 -27 11 -55 -15 -54 -49 0
-24 2 -27 8 -14 4 10 10 18 14 17 4 -2 21 0 37 4 21 4 30 11 30 26 0 21 24 27
49 11 17 -11 74 27 64 42 -3 5 1 13 8 18 7 4 11 10 8 13 -2 3 -10 1 -18 -3z"/>
<path d="M1576 4198 c3 -4 11 -5 19 -1 21 7 19 12 -4 10 -11 0 -18 -5 -15 -9z"/>
<path d="M1950 4200 c-13 -8 -13 -11 1 -25 14 -14 17 -14 22 -2 8 21 -6 38
-23 27z"/>
<path d="M1097 4096 c-10 -15 -12 -27 -5 -39 12 -23 35 -22 48 2 14 27 13 34
-9 48 -16 10 -22 9 -34 -11z"/>
<path d="M3792 4010 c-5 -14 -13 -40 -16 -57 -9 -39 -22 -49 -42 -32 -8 6 -16
10 -19 7 -2 -2 0 -46 6 -97 6 -51 8 -98 6 -104 -2 -7 -14 7 -26 31 -12 23 -24
42 -26 42 -3 0 -10 -11 -15 -24 -8 -22 -12 -24 -41 -16 -18 5 -34 9 -35 7 -1
-1 3 -31 9 -66 9 -56 8 -65 -6 -76 -10 -7 -17 -16 -17 -20 0 -4 25 -41 56 -81
58 -77 62 -90 50 -138 -6 -26 -5 -28 16 -22 13 3 40 9 61 12 l37 7 0 -108 c0
-81 3 -106 13 -102 9 3 11 31 8 105 l-3 102 29 0 c15 0 43 -4 61 -10 l34 -9
-7 39 c-6 37 -2 46 49 120 31 43 56 83 56 88 0 5 -7 15 -16 23 -15 13 -15 25
2 113 6 30 1 31 -48 11 -11 -4 -18 0 -23 14 -9 30 -18 26 -44 -16 l-22 -38 6
109 c6 110 6 110 -14 92 -17 -15 -22 -16 -26 -5 -3 8 -13 39 -24 69 -18 52
-19 54 -29 30z"/>
<path d="M1500 3986 c0 -8 4 -17 9 -20 5 -4 7 3 4 14 -6 23 -13 26 -13 6z"/>
<path d="M4341 3874 c-36 -30 -61 -74 -86 -154 -15 -45 -19 -108 -24 -340 l-6
-285 -30 -5 c-25 -4 -30 -10 -30 -35 0 -25 5 -31 30 -35 l30 -5 0 -515 c0
-533 -3 -569 -42 -601 -13 -12 -15 -8 -12 35 5 57 -13 73 -27 25 -11 -38 -28
-47 -40 -22 -5 10 -11 239 -14 508 -4 306 -10 501 -17 521 -45 128 -124 175
-204 121 -52 -35 -64 -68 -64 -174 0 -75 3 -96 18 -110 16 -16 18 -16 33 -1 9
9 25 62 36 121 11 58 26 114 34 124 40 52 78 -102 76 -307 -2 -170 -12 -199
-92 -284 -77 -81 -93 -109 -109 -186 -15 -76 -16 -263 -2 -332 31 -148 126
-181 183 -63 12 25 25 45 29 45 4 0 10 -13 14 -30 16 -72 76 -102 112 -56 17
21 21 22 29 9 8 -13 25 -15 107 -8 89 6 97 8 97 28 0 11 -10 31 -21 44 -13 13
-25 44 -30 75 -5 29 -9 274 -8 545 l1 492 41 3 c39 3 42 5 45 35 3 31 2 32
-40 35 l-43 3 0 325 c0 335 5 381 42 411 22 19 37 -6 53 -84 16 -75 26 -97 45
-97 34 0 41 155 9 210 -27 47 -77 53 -123 14z m-335 -1581 c-3 -109 -11 -229
-16 -268 -11 -73 -36 -136 -58 -143 -42 -13 -67 230 -38 368 15 74 91 240 110
240 6 0 7 -77 2 -197z"/>
<path d="M3135 3874 c-133 -69 -218 -287 -261 -667 -17 -143 -24 -508 -15
-752 3 -66 3 -127 0 -135 -2 -8 1 -14 8 -13 7 2 16 -21 23 -55 6 -31 22 -102
36 -157 14 -55 25 -108 25 -117 0 -10 4 -18 8 -18 5 0 14 -14 22 -31 22 -56
86 -126 134 -149 121 -58 222 48 271 285 29 138 43 370 23 363 -10 -3 -17 -41
-26 -134 -20 -210 -50 -311 -111 -376 -31 -33 -85 -37 -119 -9 -60 50 -120
242 -148 469 -17 141 -24 655 -11 787 40 393 106 625 187 650 11 4 30 0 44 -9
63 -42 109 -210 153 -560 4 -33 12 -61 18 -63 17 -6 23 47 19 177 -2 63 -4
185 -5 270 -2 163 -7 223 -20 215 -4 -2 -10 -18 -13 -35 -4 -16 -10 -30 -14
-30 -5 1 -30 21 -58 46 -73 67 -112 78 -170 48z"/>
<path d="M837 3823 c-15 -14 -6 -48 20 -75 26 -28 35 -59 52 -188 10 -84 -3
-401 -19 -430 -7 -13 -8 -25 -3 -29 20 -14 33 -67 33 -136 l0 -75 -144 0 -145
0 -6 54 c-4 30 -4 69 1 87 4 19 8 162 8 319 1 257 3 289 20 330 10 25 30 56
42 71 13 14 24 35 24 47 0 22 -2 22 -142 22 -79 0 -149 -4 -156 -9 -16 -9 -7
-57 13 -69 7 -4 23 -27 36 -52 23 -44 23 -51 22 -280 -1 -129 -4 -268 -6 -309
-2 -43 1 -84 7 -96 7 -14 11 -114 10 -295 -1 -317 -9 -473 -26 -514 -9 -24 -9
-31 3 -40 24 -17 28 -52 14 -114 -7 -31 -16 -80 -20 -109 -5 -40 -14 -60 -37
-82 -65 -63 -15 -101 105 -80 48 9 74 9 90 2 13 -6 37 -8 53 -5 50 9 58 40 19
74 -32 27 -60 118 -70 219 -6 66 -4 81 14 117 17 34 19 42 7 42 -8 0 -17 8
-20 18 -5 16 -11 387 -7 500 l1 52 145 0 145 0 0 -270 c0 -183 -4 -277 -12
-295 -9 -20 -8 -31 2 -50 23 -43 8 -188 -28 -266 -17 -37 -35 -68 -41 -70 -7
-3 -13 -18 -14 -34 -2 -28 1 -30 43 -36 25 -4 62 -3 82 1 20 4 55 4 78 0 60
-11 110 6 110 38 0 14 -10 32 -24 43 -33 26 -54 88 -64 188 -13 132 -16 1020
-3 1035 12 15 13 19 5 275 -5 162 -3 211 12 289 15 81 21 97 46 115 19 14 28
30 28 49 l0 28 -148 0 c-82 0 -152 -3 -155 -7z"/>
<path d="M1272 3766 c-17 -20 -37 -55 -44 -78 -6 -24 -16 -46 -22 -50 -6 -4
-6 -11 2 -20 6 -8 10 -23 8 -33 -2 -13 13 -36 40 -64 24 -24 44 -51 44 -61 0
-24 11 -32 26 -19 10 8 18 3 34 -23 11 -18 20 -39 20 -45 0 -20 -31 -93 -40
-93 -20 0 -40 13 -40 26 0 8 -8 24 -19 35 -10 11 -21 34 -25 50 -6 31 -36 41
-36 12 -1 -10 -3 -44 -7 -76 -5 -56 -4 -60 26 -89 27 -26 35 -29 54 -21 12 6
42 16 67 24 38 12 49 21 68 59 45 89 21 220 -48 265 -17 11 -33 30 -36 43 -4
13 -9 21 -12 18 -13 -14 -32 20 -32 58 0 44 13 66 40 66 20 0 50 -50 50 -83 0
-35 10 -57 25 -57 10 0 14 22 17 76 3 85 0 96 -34 100 -12 2 -39 6 -59 10 -32
5 -39 2 -67 -30z"/>
<path d="M1884 3789 c-51 -18 -70 -108 -42 -200 10 -36 9 -41 -11 -63 -12 -13
-28 -43 -36 -67 l-13 -44 -7 38 c-4 20 -20 51 -35 67 -16 17 -24 33 -18 36 15
10 30 56 30 96 -1 42 -34 113 -57 122 -22 8 -211 9 -225 1 -8 -5 -4 -16 14
-34 l25 -26 -2 -203 c-2 -198 -3 -204 -24 -222 -43 -34 -29 -40 92 -40 138 0
165 10 190 72 l18 43 7 -30 c21 -95 96 -127 155 -65 l28 29 34 -29 c18 -17 39
-31 46 -31 25 -3 42 3 50 18 7 11 12 11 22 3 9 -8 54 -11 134 -8 117 3 120 4
151 33 43 41 57 70 71 150 22 127 -23 280 -96 325 -27 17 -50 20 -149 20 -64
0 -116 -3 -116 -6 0 -4 11 -17 24 -29 l25 -23 -2 -207 c-2 -207 -2 -208 -26
-223 -23 -16 -23 -15 -17 5 8 26 -13 42 -26 19 -15 -26 -31 -19 -62 30 l-29
46 21 68 c12 37 31 75 42 85 31 28 24 35 -35 35 -57 0 -67 -9 -39 -37 11 -12
14 -27 10 -51 -10 -62 -21 -57 -56 26 l-23 52 27 38 c28 40 34 99 17 145 -11
29 -57 48 -87 36z m-236 -64 c19 -18 27 -90 13 -124 -10 -23 -46 -51 -66 -51
-3 0 -5 45 -5 101 0 99 0 100 23 94 12 -4 28 -13 35 -20z m278 0 c3 -14 3 -46
-1 -71 -5 -35 -9 -43 -19 -35 -18 15 -38 88 -31 111 9 29 43 25 51 -5z m420
-20 c52 -59 74 -173 54 -280 -15 -81 -40 -115 -83 -115 -24 0 -28 -3 -17 -10
8 -5 10 -10 4 -10 -48 -1 -57 59 -55 359 l1 104 33 -7 c19 -3 44 -20 63 -41z
m-669 -221 c26 -41 28 -122 4 -161 -24 -38 -64 -45 -81 -14 -5 11 -10 60 -10
110 l0 91 35 0 c26 0 39 -6 52 -26z m273 -149 c0 -22 -37 -47 -59 -40 -37 11
-54 112 -30 178 l13 38 38 -82 c21 -45 38 -87 38 -94z"/>
<path d="M2519 3780 c-22 -5 -24 -11 -27 -79 -2 -56 0 -72 10 -69 7 3 16 21
21 40 10 44 33 66 75 74 l32 7 0 -200 c0 -201 -8 -263 -36 -263 -8 0 -14 -10
-14 -21 0 -21 3 -22 75 -16 92 7 106 14 74 38 -24 18 -24 18 -25 237 l-1 219
32 -7 c48 -11 54 -17 66 -66 7 -25 17 -43 23 -41 14 5 19 76 8 119 l-8 33
-141 0 c-78 0 -151 -2 -164 -5z"/>
<path d="M4516 3443 c-2 -16 -8 -55 -11 -88 -10 -92 -35 -195 -61 -251 -30
-63 -30 -82 -2 -86 l21 -3 2 -535 c1 -505 2 -538 21 -585 37 -94 109 -101 152
-13 13 26 26 67 28 90 4 38 3 40 -7 18 -28 -64 -36 -75 -54 -75 -55 0 -64 95
-62 635 l2 465 50 5 c48 5 50 6 53 38 3 31 2 32 -37 32 -74 0 -71 -9 -71 196
0 105 -4 184 -9 184 -5 0 -12 -12 -15 -27z"/>
<path d="M2371 3224 c0 -11 3 -14 6 -6 3 7 2 16 -1 19 -3 4 -6 -2 -5 -13z"/>
<path d="M3508 3083 c-47 -21 -58 -30 -58 -50 0 -13 6 -26 14 -29 37 -14 40
-58 44 -519 2 -247 1 -473 -3 -502 -4 -30 -17 -68 -31 -88 -13 -20 -24 -45
-24 -55 0 -19 7 -20 104 -20 85 0 105 3 110 16 7 17 -5 44 -28 63 -31 26 -39
119 -38 471 1 569 35 762 98 549 12 -41 19 -49 39 -49 30 0 39 38 33 140 -3
55 -8 73 -23 84 -46 35 -91 11 -130 -69 l-24 -50 -1 36 c0 46 -10 99 -19 98
-3 0 -32 -12 -63 -26z"/>
<path d="M2143 3076 c-15 -13 -41 -51 -57 -85 -17 -34 -32 -61 -36 -61 -3 0
-12 21 -19 47 -29 112 -101 147 -163 81 -17 -18 -37 -48 -45 -67 -8 -18 -16
-31 -19 -28 -5 5 -12 65 -13 110 -1 9 -8 17 -16 17 -26 0 -125 -49 -131 -64
-3 -9 5 -29 19 -46 34 -39 44 -114 41 -295 0 -27 -1 -198 0 -380 0 -181 -3
-351 -7 -377 -5 -29 -17 -56 -33 -72 -16 -15 -24 -33 -22 -48 3 -22 6 -23 107
-23 95 0 105 2 118 21 13 20 12 24 -16 50 -24 23 -32 42 -40 94 -14 85 -14
520 -1 520 6 0 10 7 10 16 0 9 -5 12 -12 8 -10 -6 -10 -4 -2 7 8 10 8 42 2
108 -15 151 28 369 77 387 21 9 49 -18 65 -64 18 -50 27 -562 10 -562 -6 0 -8
-5 -4 -12 5 -8 2 -9 -9 -5 -9 3 -19 2 -22 -3 -4 -6 -2 -10 3 -10 26 0 40 -68
41 -205 2 -164 -10 -249 -39 -280 -11 -12 -20 -31 -20 -43 0 -18 6 -22 33 -23
51 -2 69 -2 130 -1 56 2 57 2 57 32 0 16 -7 33 -16 38 -23 13 -44 104 -44 195
l0 79 28 -18 c22 -14 25 -15 14 -1 -8 9 -11 20 -8 25 3 6 -2 9 -11 8 -21 -1
-22 17 -23 353 0 250 3 299 26 403 23 100 68 127 105 63 30 -50 39 -183 39
-546 0 -323 -1 -347 -19 -367 -10 -12 -26 -22 -36 -22 -14 0 -15 -3 -5 -15 11
-13 14 -13 27 1 9 8 18 12 21 9 3 -3 -4 -12 -16 -21 -19 -13 -20 -17 -8 -29
22 -22 13 -95 -14 -115 -14 -11 -21 -25 -18 -41 3 -23 7 -24 72 -26 48 -1 74
-7 87 -19 18 -16 24 -13 19 11 -1 7 2 7 8 0 6 -5 12 -19 14 -29 3 -19 4 -19
21 -1 12 12 15 20 8 25 -7 4 -3 15 11 30 17 18 18 22 5 17 -13 -5 -17 -1 -17
17 0 13 -6 26 -13 29 -8 3 -22 22 -32 43 -16 33 -18 81 -21 486 -2 291 -7 470
-15 507 -34 166 -101 230 -176 167z"/>
<path d="M2546 3063 c-25 -21 -48 -49 -52 -63 -4 -14 -11 -30 -16 -36 -5 -7
-8 -16 -6 -20 1 -5 -5 -43 -15 -84 -9 -41 -21 -111 -28 -155 -13 -91 -16 -465
-4 -540 4 -27 9 -62 10 -78 1 -15 5 -30 8 -34 4 -3 7 -15 7 -25 0 -30 39 -137
65 -179 72 -113 182 -95 235 40 21 55 48 210 42 249 -2 12 -9 22 -16 22 -13 0
-24 -41 -32 -123 -4 -42 -34 -106 -59 -127 -12 -10 -21 -10 -39 -2 -28 13 -81
113 -73 141 3 12 2 19 -3 16 -7 -4 -23 65 -36 160 -8 60 -20 327 -16 351 3 18
13 23 60 28 69 7 153 1 161 -13 4 -5 15 -2 28 8 23 19 23 28 8 206 -9 111 -66
264 -105 285 -37 20 -77 11 -124 -27z m98 -57 c23 -48 46 -154 45 -206 0 -25
-3 -39 -6 -32 -11 27 -31 10 -37 -33 l-7 -45 -60 0 c-68 0 -64 -9 -48 120 6
52 16 91 26 100 14 13 15 12 9 -10 -3 -14 -3 -19 0 -11 5 11 8 11 16 0 6 -9 6
-2 1 21 -11 52 -8 95 8 113 21 25 35 20 53 -17z m31 -255 c3 -5 1 -12 -5 -16
-5 -3 -10 1 -10 9 0 18 6 21 15 7z"/>
<path d="M2611 2914 c0 -11 3 -14 6 -6 3 7 2 16 -1 19 -3 4 -6 -2 -5 -13z"/>
<path d="M2630 2811 c0 -7 -4 -9 -10 -6 -5 3 -10 2 -10 -4 0 -5 4 -12 9 -15
10 -6 25 24 16 32 -3 3 -5 0 -5 -7z"/>
<path d="M2621 2744 c0 -11 3 -14 6 -6 3 7 2 16 -1 19 -3 4 -6 -2 -5 -13z"/>
<path d="M1327 3075 c-21 -7 -39 -15 -40 -17 -1 -1 -8 -13 -15 -26 -7 -13 -10
-26 -8 -31 3 -4 -8 -48 -24 -98 -26 -80 -36 -129 -69 -328 -8 -49 -7 -183 4
-315 19 -250 90 -451 175 -495 60 -31 133 14 172 104 28 64 64 192 79 281 13
77 17 437 6 519 -4 24 -1 53 4 64 7 12 8 22 1 26 -8 5 -19 30 -27 61 -1 3 -5
14 -10 25 -4 11 -18 45 -30 75 -59 150 -118 191 -218 155z m65 -88 c-14 -16
-14 -19 -2 -17 37 6 51 0 42 -16 -6 -11 0 -33 20 -73 40 -79 58 -220 58 -446
1 -186 -18 -397 -45 -498 -33 -128 -75 -156 -114 -78 -45 90 -66 240 -76 546
-7 199 7 377 40 491 15 53 45 93 45 60 0 -9 7 -16 15 -16 16 0 20 12 8 24 -14
14 -9 42 8 42 17 0 17 -1 1 -19z"/>
<path d="M1620 2720 c0 -5 5 -10 11 -10 5 0 7 5 4 10 -3 6 -8 10 -11 10 -2 0
-4 -4 -4 -10z"/>
<path d="M2172 2071 c7 -11 16 -17 20 -15 5 3 2 12 -6 20 -21 20 -28 17 -14
-5z"/>
<path d="M3993 1703 c-47 -6 -59 -26 -31 -53 23 -21 23 -25 26 -278 4 -263 -3
-327 -31 -303 -10 8 -17 7 -25 -1 -6 -6 -15 -8 -19 -4 -5 4 -10 79 -13 166 -5
151 -6 160 -29 184 -20 21 -34 26 -71 26 -53 0 -100 -28 -100 -60 0 -63 44
-69 67 -10 10 25 22 40 34 40 31 0 52 -98 29 -141 -6 -10 -33 -31 -61 -45 -38
-19 -54 -34 -66 -62 -19 -45 -12 -108 16 -135 25 -25 74 -26 101 -2 19 17 21
17 40 0 14 -13 28 -16 52 -11 19 3 83 6 143 7 171 1 196 9 158 51 -14 15 -16
45 -17 196 l-1 177 -35 3 c-19 1 -42 -2 -50 -7 -13 -9 -13 -14 2 -38 28 -48
30 -310 2 -337 -18 -18 -23 -19 -44 -6 -13 8 -16 59 -20 326 -3 200 -9 318
-15 319 -5 1 -24 0 -42 -2z m-154 -530 c-1 -97 -46 -160 -69 -98 -13 34 1 89
31 121 32 34 39 30 38 -23z"/>
<path d="M4139 1687 c-16 -35 -4 -77 21 -77 29 0 44 35 28 67 -18 36 -35 40
-49 10z"/>
<path d="M3079 1686 c-84 -29 -131 -84 -170 -198 -17 -50 -22 -87 -23 -179 -1
-79 3 -121 11 -131 7 -8 10 -17 7 -21 -3 -3 2 -18 12 -34 43 -69 89 -115 137
-139 28 -13 63 -39 79 -58 22 -27 40 -37 83 -46 50 -10 56 -10 85 11 36 27 82
151 63 170 -9 9 -16 2 -27 -25 -17 -42 -56 -62 -87 -46 -26 15 -25 22 22 90
46 68 66 124 75 215 23 223 -126 441 -267 391z m87 -54 c73 -58 109 -298 69
-452 -20 -79 -50 -131 -71 -123 -7 3 -14 9 -14 14 0 15 -82 51 -106 46 -18 -3
-24 0 -24 12 0 10 -4 21 -9 27 -27 30 -41 217 -22 293 6 20 15 57 21 82 17 66
63 119 103 119 18 0 42 -8 53 -18z"/>
<path d="M1786 1654 c-23 -22 -21 -81 3 -93 26 -14 50 6 53 46 2 29 -15 63
-33 63 -4 0 -15 -7 -23 -16z"/>
<path d="M421 1641 c-33 -9 -37 -27 -11 -41 41 -22 48 -62 46 -256 -3 -200 -4
-202 -74 -257 -31 -24 -33 -27 -13 -27 12 0 20 4 17 9 -7 10 42 21 61 14 21
-8 15 -33 -18 -65 -42 -42 -32 -58 38 -60 96 -2 143 5 143 23 0 6 -13 24 -30
41 -25 25 -30 38 -32 81 -3 116 5 139 60 163 20 9 53 24 72 33 38 19 72 17 90
-4 8 -9 11 -54 8 -137 -3 -112 -5 -126 -27 -156 -15 -19 -21 -35 -15 -40 5 -4
40 -6 77 -4 76 4 92 19 61 53 -16 18 -19 38 -19 144 0 130 10 161 46 150 29
-10 59 4 69 31 5 13 16 24 25 24 17 0 20 -11 7 -25 -28 -32 -44 -110 -39 -179
11 -122 44 -177 120 -196 41 -11 50 -10 81 9 49 31 88 121 51 121 -8 0 -21
-13 -29 -28 -35 -68 -79 -64 -115 10 -23 49 -28 123 -8 130 6 3 37 6 67 7 30
1 60 7 67 13 23 19 15 89 -17 146 -30 52 -31 52 -70 46 -27 -4 -40 -3 -40 5 0
13 -52 15 -66 1 -5 -5 -64 -12 -132 -16 l-122 -6 0 36 c0 63 -21 137 -49 168
-22 25 -37 31 -96 38 -80 11 -149 11 -184 1z m209 -83 c26 -43 27 -130 1 -178
-16 -32 -63 -61 -76 -49 -7 7 -13 247 -7 254 3 3 18 5 34 5 21 0 33 -8 48 -32z
m493 -233 c24 -51 22 -55 -28 -55 -34 0 -45 4 -45 16 0 28 31 73 51 74 3 0 13
-16 22 -35z"/>
<path d="M1055 1572 c-11 -11 -4 -22 14 -22 11 0 26 -7 35 -15 8 -8 23 -15 33
-15 17 1 17 1 1 11 -10 5 -18 16 -18 23 0 13 -55 28 -65 18z"/>
<path d="M4300 1545 c-15 -38 -33 -74 -51 -103 -12 -21 -12 -24 4 -33 15 -9
17 -28 17 -167 0 -180 3 -196 36 -211 40 -18 103 17 104 58 0 11 -4 11 -18 -2
-49 -45 -62 -9 -62 172 l0 151 39 0 39 0 17 -67 c10 -38 28 -105 41 -150 32
-114 39 -174 24 -217 -10 -32 -16 -36 -45 -36 -23 0 -34 -5 -38 -19 -11 -42
36 -69 64 -35 18 21 42 97 79 244 46 188 62 241 81 282 20 43 17 48 -28 48
-36 0 -38 -5 -23 -45 8 -20 4 -49 -15 -122 -14 -53 -27 -98 -29 -100 -2 -2 -7
13 -10 34 -4 21 -16 67 -27 102 -17 56 -18 67 -5 92 17 34 10 38 -62 32 -84
-7 -102 0 -103 45 0 20 -4 46 -8 57 -8 18 -10 18 -21 -10z"/>
<path d="M1310 1460 c0 -15 7 -20 25 -20 14 0 25 5 25 10 0 6 -7 10 -15 10 -8
0 -15 5 -15 10 0 6 -4 10 -10 10 -5 0 -10 -9 -10 -20z"/>
<path d="M2570 1464 c0 -14 3 -14 15 -4 8 7 15 14 15 16 0 2 -7 4 -15 4 -8 0
-15 -7 -15 -16z"/>
<path d="M3558 1433 c-23 -6 -22 -9 2 -40 18 -23 20 -41 20 -152 0 -141 -15
-193 -58 -199 -40 -6 -52 45 -52 228 l0 160 -55 0 c-30 0 -55 -3 -55 -7 0 -4
10 -17 23 -31 20 -22 22 -35 27 -180 5 -158 13 -193 46 -206 28 -11 69 -6 93
10 22 16 24 16 33 1 9 -17 53 -15 91 5 18 9 18 11 -5 35 -22 23 -23 33 -28
201 l-5 177 -30 2 c-16 0 -38 -1 -47 -4z"/>
<path d="M2553 1422 c-12 -4 -33 -17 -46 -29 l-25 -21 -23 24 c-27 28 -73 32
-108 8 -22 -16 -24 -16 -33 0 -9 17 -30 17 -90 0 -22 -6 -23 -37 -4 -53 8 -7
15 -20 16 -29 0 -9 3 -44 6 -76 3 -33 3 -97 -1 -143 -6 -79 -8 -83 -31 -83
-13 0 -27 8 -33 18 -5 9 -9 93 -10 186 -1 93 -4 173 -7 178 -3 4 -27 8 -55 8
-56 0 -62 -13 -28 -60 20 -27 21 -37 17 -154 -5 -134 -17 -170 -58 -173 -15
-1 -20 2 -16 13 3 8 2 12 -3 9 -15 -9 -19 21 -27 193 l-7 162 -53 0 c-47 0
-54 -3 -54 -20 0 -10 9 -24 20 -30 19 -10 20 -20 20 -148 -1 -193 11 -233 73
-247 44 -10 70 -6 85 13 8 11 15 13 20 6 4 -7 52 -10 130 -9 96 1 125 4 133
15 12 20 11 27 -4 33 -16 6 -32 116 -32 224 0 57 5 78 21 99 26 36 37 35 49
-3 5 -18 13 -33 17 -33 5 0 8 -61 7 -135 -1 -122 -3 -136 -20 -145 -10 -6 -19
-20 -19 -30 0 -18 7 -20 74 -20 61 0 75 3 81 18 4 11 -1 22 -14 31 -20 12 -21
23 -21 152 0 76 4 149 9 162 14 37 50 45 73 17 15 -19 18 -42 18 -161 0 -126
-2 -141 -20 -159 -11 -11 -20 -29 -20 -39 0 -17 8 -19 69 -20 62 -1 70 1 76
20 4 13 0 28 -12 41 -16 17 -19 44 -24 202 -3 99 -6 174 -7 166 -2 -11 -7 -10
-21 8 -19 22 -46 26 -88 14z"/>
<path d="M1375 1393 l-18 -26 -17 23 c-16 21 -20 22 -56 10 -50 -17 -58 -30
-33 -56 20 -21 20 -32 16 -177 -3 -128 -7 -158 -21 -172 -25 -26 -10 -35 57
-35 83 0 96 9 67 47 -20 28 -21 39 -18 166 3 123 5 139 24 158 17 17 25 19 42
10 25 -13 29 -38 31 -187 2 -112 0 -125 -19 -144 -38 -38 -27 -50 49 -50 83 0
104 15 66 48 -24 21 -25 26 -24 139 1 178 14 200 74 140 l35 -35 -5 -113 c-4
-95 -8 -116 -25 -134 -39 -41 -29 -45 124 -45 120 0 146 3 157 16 11 14 10 18
-5 29 -25 19 -38 86 -27 137 6 23 8 46 5 50 -3 4 -5 41 -5 82 0 102 -9 132
-40 129 -69 -7 -87 -27 -54 -59 17 -17 21 -94 5 -94 -7 0 -7 -6 0 -19 5 -11
10 -62 10 -114 0 -74 -3 -97 -16 -108 -11 -9 -20 -10 -32 -2 -14 9 -17 32 -19
149 -3 224 -24 253 -175 242 -32 -3 -49 0 -52 9 -3 8 -22 13 -45 13 -31 0 -42
-5 -56 -27z"/>
<path d="M571 890 c-19 -27 -20 -33 -8 -51 14 -20 15 -19 38 18 13 21 27 41
32 44 8 6 -14 19 -32 19 -4 0 -17 -14 -30 -30z"/>
<path d="M398 673 c-10 -2 -18 -9 -18 -14 0 -14 26 -11 40 6 13 15 9 16 -22 8z"/>
</g>
</svg>
